# Blender v2.90.1 OBJ File: ''
# www.blender.org
mtllib plataforma_rotatoria.mtl
o Cylinder_Cylinder.002
v -0.000001 -1.134562 -20.965359
v -0.000001 1.129748 -20.965359
v 4.090138 -1.134562 -20.562513
v 4.090138 1.129748 -20.562513
v 17.432062 -1.134562 -11.647725
v 17.432062 1.129748 -11.647725
v 19.369469 -1.134562 -8.023090
v 19.369469 1.129748 -8.023090
v 20.562519 -1.134562 -4.090134
v 20.562519 1.129748 -4.090134
v 20.965363 -1.134562 0.000005
v 20.965363 1.129748 0.000005
v 20.562521 -1.134562 4.090143
v 20.562521 1.129748 4.090143
v 19.369471 -1.134562 8.023101
v 19.369471 1.129748 8.023101
v 17.432062 -1.134562 11.647738
v 17.432062 1.129748 11.647738
v 4.090134 -1.134562 20.562529
v 4.090134 1.129748 20.562529
v -0.000008 -1.134562 20.965372
v -0.000008 1.129748 20.965372
v -4.090149 -1.134562 20.562525
v -4.090149 1.129748 20.562525
v -8.023108 -1.134562 19.369473
v -8.023108 1.129748 19.369473
v -11.647744 -1.134562 17.432062
v -11.647744 1.129748 17.432062
v -14.824762 -1.134562 14.824749
v -14.824762 1.129748 14.824749
v -17.432074 -1.134562 11.647726
v -17.432074 1.129748 11.647726
v -19.362570 -1.203459 7.965131
v -19.369480 1.129748 8.023088
v -19.369463 -1.134562 -8.023112
v -19.369463 1.129748 -8.023112
v -17.432051 -1.134562 -11.647748
v -17.432051 1.129748 -11.647748
v -14.824734 -1.134562 -14.824763
v -14.824734 1.129748 -14.824763
v -11.647710 -1.134562 -17.432074
v -11.647710 1.129748 -17.432074
v -8.023070 -1.134562 -19.369476
v -8.023070 1.129748 -19.369476
v -4.090109 -1.134562 -20.562521
v -4.090109 1.129748 -20.562521
v 2.545308 1.129748 -12.796125
v -0.000000 1.129748 -13.046817
v 10.848034 1.129748 -7.248421
v 12.053689 1.129748 -4.992797
v 12.796128 1.129748 -2.545305
v 13.046820 1.129748 0.000003
v 12.796129 1.129748 2.545310
v 12.053690 1.129748 4.992804
v 10.848034 1.129748 7.248428
v 2.545305 1.129748 12.796134
v -0.000005 1.129748 13.046825
v -2.545314 1.129748 12.796132
v -4.992808 1.129748 12.053692
v -7.248432 1.129748 10.848034
v -9.225502 1.129748 9.225493
v -10.848042 1.129748 7.248421
v -12.053697 1.129748 4.992796
v -12.053686 1.129748 -4.992811
v -10.848027 1.129748 -7.248435
v -9.225484 1.129748 -9.225503
v -7.248411 1.129748 -10.848042
v -4.992785 1.129748 -12.053694
v -2.545289 1.129748 -12.796130
v 2.545308 -1.134562 -12.796125
v -0.000000 -1.134562 -13.046817
v 10.848034 -1.134562 -7.248421
v 12.053689 -1.134562 -4.992797
v 12.796128 -1.134562 -2.545305
v 13.046820 -1.134562 0.000003
v 12.796129 -1.134562 2.545310
v 12.053690 -1.134562 4.992804
v 10.848034 -1.134562 7.248428
v 2.545305 -1.134562 12.796134
v -0.000005 -1.134562 13.046825
v -2.545314 -1.134562 12.796132
v -4.992808 -1.134562 12.053692
v -7.248432 -1.134562 10.848034
v -9.225502 -1.134562 9.225493
v -10.848042 -1.134562 7.248421
v -12.046785 -1.203459 4.934839
v -12.053686 -1.134562 -4.992811
v -10.848027 -1.134562 -7.248435
v -9.225484 -1.134562 -9.225503
v -7.248411 -1.134562 -10.848042
v -4.992785 -1.134562 -12.053694
v -2.545289 -1.134562 -12.796130
vt 1.000000 0.500000
vt 1.000000 1.000000
vt 0.968750 1.000000
vt 0.968750 0.500000
vt 0.843750 0.500000
vt 0.843750 1.000000
vt 0.812500 1.000000
vt 0.812500 0.500000
vt 0.781250 1.000000
vt 0.781250 0.500000
vt 0.750000 1.000000
vt 0.750000 0.500000
vt 0.718750 1.000000
vt 0.718750 0.500000
vt 0.687500 1.000000
vt 0.687500 0.500000
vt 0.656250 1.000000
vt 0.656250 0.500000
vt 0.531250 0.500000
vt 0.531250 1.000000
vt 0.500000 1.000000
vt 0.500000 0.500000
vt 0.468750 1.000000
vt 0.468750 0.500000
vt 0.437500 1.000000
vt 0.437500 0.500000
vt 0.406250 1.000000
vt 0.406250 0.500000
vt 0.375000 1.000000
vt 0.375000 0.500000
vt 0.343750 1.000000
vt 0.343750 0.500000
vt 0.312500 1.000000
vt 0.312500 0.500000
vt 0.187500 0.500000
vt 0.187500 1.000000
vt 0.156250 1.000000
vt 0.156250 0.500000
vt 0.125000 1.000000
vt 0.125000 0.500000
vt 0.093750 1.000000
vt 0.093750 0.500000
vt 0.062500 1.000000
vt 0.062500 0.500000
vt 0.718750 1.000000
vt 0.687500 1.000000
vt 0.031250 1.000000
vt 0.031250 0.500000
vt 0.000000 1.000000
vt 0.000000 0.500000
vt 0.437500 1.000000
vt 0.406250 1.000000
vt 0.156250 1.000000
vt 0.125000 1.000000
vt 0.843750 1.000000
vt 0.812500 1.000000
vt 0.656250 1.000000
vt 0.375000 1.000000
vt 0.093750 1.000000
vt 0.781250 1.000000
vt 0.531250 1.000000
vt 0.500000 1.000000
vt 0.343750 1.000000
vt 0.062500 1.000000
vt 0.750000 1.000000
vt 0.468750 1.000000
vt 0.312500 1.000000
vt 0.031250 1.000000
vt 0.187500 1.000000
vt 1.000000 1.000000
vt 0.968750 1.000000
vt 0.000000 1.000000
vt 0.437500 1.000000
vt 0.468750 1.000000
vt 1.000000 1.000000
vt 0.968750 1.000000
vt 0.156250 1.000000
vt 0.125000 1.000000
vt 0.093750 1.000000
vt 0.531250 1.000000
vt 0.500000 1.000000
vt 0.062500 1.000000
vt 0.031250 1.000000
vt 0.000000 1.000000
vt 0.406250 1.000000
vt 0.843750 1.000000
vt 0.812500 1.000000
vt 0.375000 1.000000
vt 0.781250 1.000000
vt 0.343750 1.000000
vt 0.750000 1.000000
vt 0.312500 1.000000
vt 0.718750 1.000000
vt 0.687500 1.000000
vt 0.656250 1.000000
vt 0.187500 1.000000
vn 0.0980 0.0000 -0.9952
vn 0.8819 0.0000 -0.4714
vn 0.9569 0.0000 -0.2903
vn 0.9952 0.0000 -0.0980
vn 0.9952 0.0000 0.0980
vn 0.9569 0.0000 0.2903
vn 0.8819 0.0000 0.4714
vn 0.0980 0.0000 0.9952
vn -0.0980 0.0000 0.9952
vn -0.2903 0.0000 0.9569
vn -0.4714 0.0000 0.8819
vn -0.6344 0.0000 0.7730
vn -0.7730 0.0000 0.6344
vn -0.8838 -0.0072 0.4679
vn -0.8819 0.0000 -0.4714
vn -0.7730 0.0000 -0.6344
vn -0.6344 0.0000 -0.7730
vn -0.4714 0.0000 -0.8819
vn -0.0000 1.0000 -0.0000
vn -0.2903 0.0000 -0.9569
vn -0.0980 0.0000 -0.9952
vn 0.0000 -1.0000 0.0000
vn 0.7730 0.0000 0.6344
vn 0.6344 0.0000 0.7730
vn 0.4714 0.0000 0.8819
vn 0.2903 0.0000 0.9569
vn 0.2903 0.0000 -0.9569
vn 0.4714 0.0000 -0.8819
vn -0.8819 0.0000 0.4714
vn 0.6344 0.0000 -0.7730
vn -0.9569 0.0000 0.2903
vn 0.7730 0.0000 -0.6344
vn -0.9952 0.0000 0.0980
vn 0.8849 0.0072 -0.4658
vn -0.9952 0.0000 -0.0980
vn -0.9569 0.0000 -0.2903
vn 0.0096 -0.9998 0.0180
vn -0.5556 0.0000 0.8315
vn -0.5556 0.0000 -0.8315
vn -0.3826 0.0218 -0.9237
vn 0.9808 0.0000 -0.1951
vn -0.3827 0.0000 0.9239
vn 0.9808 0.0000 0.1951
usemtl None
s off
f 1/1/1 2/2/1 4/3/1 3/4/1
f 5/5/2 6/6/2 8/7/2 7/8/2
f 7/8/3 8/7/3 10/9/3 9/10/3
f 9/10/4 10/9/4 12/11/4 11/12/4
f 11/12/5 12/11/5 14/13/5 13/14/5
f 13/14/6 14/13/6 16/15/6 15/16/6
f 15/16/7 16/15/7 18/17/7 17/18/7
f 19/19/8 20/20/8 22/21/8 21/22/8
f 21/22/9 22/21/9 24/23/9 23/24/9
f 23/24/10 24/23/10 26/25/10 25/26/10
f 25/26/11 26/25/11 28/27/11 27/28/11
f 27/28/12 28/27/12 30/29/12 29/30/12
f 29/30/13 30/29/13 32/31/13 31/32/13
f 31/32/14 32/31/14 34/33/14 33/34/14
f 35/35/15 36/36/15 38/37/15 37/38/15
f 37/38/16 38/37/16 40/39/16 39/40/16
f 39/40/17 40/39/17 42/41/17 41/42/17
f 41/42/18 42/41/18 44/43/18 43/44/18
f 16/15/19 14/13/19 53/45/19 54/46/19
f 43/44/20 44/43/20 46/47/20 45/48/20
f 45/48/21 46/47/21 2/49/21 1/50/21
f 28/27/19 26/25/19 59/51/19 60/52/19
f 40/39/19 38/37/19 65/53/19 66/54/19
f 8/7/19 6/6/19 49/55/19 50/56/19
f 18/17/19 16/15/19 54/46/19 55/57/19
f 30/29/19 28/27/19 60/52/19 61/58/19
f 42/41/19 40/39/19 66/54/19 67/59/19
f 10/9/19 8/7/19 50/56/19 51/60/19
f 22/21/19 20/20/19 56/61/19 57/62/19
f 32/31/19 30/29/19 61/58/19 62/63/19
f 44/43/19 42/41/19 67/59/19 68/64/19
f 12/11/19 10/9/19 51/60/19 52/65/19
f 24/23/19 22/21/19 57/62/19 58/66/19
f 34/33/19 32/31/19 62/63/19 63/67/19
f 46/47/19 44/43/19 68/64/19 69/68/19
f 14/13/19 12/11/19 52/65/19 53/45/19
f 26/25/19 24/23/19 58/66/19 59/51/19
f 38/37/19 36/36/19 64/69/19 65/53/19
f 4/3/19 2/2/19 48/70/19 47/71/19
f 2/49/19 46/47/19 69/68/19 48/72/19
f 23/24/22 25/26/22 82/73/22 81/74/22
f 47/71/9 48/70/9 71/75/9 70/76/9
f 66/54/23 65/53/23 88/77/23 89/78/23
f 67/59/24 66/54/24 89/78/24 90/79/24
f 57/62/21 56/61/21 79/80/21 80/81/21
f 68/64/25 67/59/25 90/79/25 91/82/25
f 58/66/1 57/62/1 80/81/1 81/74/1
f 69/68/26 68/64/26 91/82/26 92/83/26
f 59/51/27 58/66/27 81/74/27 82/73/27
f 48/72/8 69/68/8 92/83/8 71/84/8
f 60/52/28 59/51/28 82/73/28 83/85/28
f 50/56/29 49/55/29 72/86/29 73/87/29
f 61/58/30 60/52/30 83/85/30 84/88/30
f 51/60/31 50/56/31 73/87/31 74/89/31
f 62/63/32 61/58/32 84/88/32 85/90/32
f 52/65/33 51/60/33 74/89/33 75/91/33
f 63/67/34 62/63/34 85/90/34 86/92/34
f 53/45/35 52/65/35 75/91/35 76/93/35
f 54/46/36 53/45/36 76/93/36 77/94/36
f 55/57/15 54/46/15 77/94/15 78/95/15
f 65/53/7 64/69/7 87/96/7 88/77/7
f 21/22/22 23/24/22 81/74/22 80/81/22
f 19/19/22 21/22/22 80/81/22 79/80/22
f 15/16/22 17/18/22 78/95/22 77/94/22
f 13/14/22 15/16/22 77/94/22 76/93/22
f 11/12/22 13/14/22 76/93/22 75/91/22
f 9/10/22 11/12/22 75/91/22 74/89/22
f 7/8/22 9/10/22 74/89/22 73/87/22
f 5/5/22 7/8/22 73/87/22 72/86/22
f 1/1/22 3/4/22 70/76/22 71/75/22
f 45/48/22 1/1/22 71/84/22 92/83/22
f 43/44/22 45/48/22 92/83/22 91/82/22
f 41/42/22 43/44/22 91/82/22 90/79/22
f 39/40/22 41/42/22 90/79/22 89/78/22
f 37/38/22 39/40/22 89/78/22 88/77/22
f 35/35/22 37/38/22 88/77/22 87/96/22
f 31/32/37 33/34/37 86/92/37 85/90/37
f 29/30/22 31/32/22 85/90/22 84/88/22
f 27/28/22 29/30/22 84/88/22 83/85/22
f 25/26/22 27/28/22 83/85/22 82/73/22
f 18/17/38 55/57/38 78/95/38 17/18/38
f 6/6/39 5/5/39 72/86/39 49/55/39
f 34/33/40 63/67/40 86/92/40 33/34/40
f 20/20/41 19/19/41 79/80/41 56/61/41
f 36/36/42 35/35/42 87/96/42 64/69/42
f 4/3/43 47/71/43 70/76/43 3/4/43
